{
  "accessors": [
    {
      "bufferView": 2,
      "componentType": 5126,
      "count": 1216,
      "max": [
        -159.03489685058594,
        159.20199584960938,
        246.98219299316406
      ],
      "min": [
        -164.28779602050781,
        157.46319580078125,
        241.84410095214844
      ],
      "type": "VEC3"
    },
    {
      "bufferView": 2,
      "byteOffset": 14592,
      "componentType": 5126,
      "count": 1216,
      "max": [
        1,
        0.99480485916137695,
        0.97821319103240967
      ],
      "min": [
        -1,
        -0.20840892195701599,
        -0.99990057945251465
      ],
      "type": "VEC3"
    },
    {
      "bufferView": 1,
      "componentType": 5126,
      "count": 1216,
      "max": [
        0.40470001101493835,
        0.59530001878738403
      ],
      "min": [
        0.04479999840259552,
        0.0020000000949949026
      ],
      "type": "VEC2"
    },
    {
      "bufferView": 0,
      "componentType": 5125,
      "count": 6048,
      "max": [
        1215
      ],
      "min": [
        0
      ],
      "type": "SCALAR"
    },
    {
      "bufferView": 2,
      "byteOffset": 29184,
      "componentType": 5126,
      "count": 15876,
      "max": [
        176.73719787597656,
        72.849296569824219,
        4.5426998138427734
      ],
      "min": [
        -175.44639587402344,
        14.544699668884277,
        3.4467000961303711
      ],
      "type": "VEC3"
    },
    {
      "bufferView": 2,
      "byteOffset": 219696,
      "componentType": 5126,
      "count": 15876,
      "max": [
        0.99954396486282349,
        1,
        1
      ],
      "min": [
        -0.99954396486282349,
        -1,
        -1
      ],
      "type": "VEC3"
    },
    {
      "bufferView": 1,
      "byteOffset": 9728,
      "componentType": 5126,
      "count": 15876,
      "max": [
        0.99800002574920654,
        0.99800002574920654
      ],
      "min": [
        0.0020000000949949026,
        0.045899998396635056
      ],
      "type": "VEC2"
    },
    {
      "bufferView": 0,
      "byteOffset": 24192,
      "componentType": 5125,
      "count": 66528,
      "max": [
        15875
      ],
      "min": [
        0
      ],
      "type": "SCALAR"
    },
    {
      "bufferView": 2,
      "byteOffset": 410208,
      "componentType": 5126,
      "count": 569,
      "max": [
        -160.73179626464844,
        158.58720397949219,
        245.466796875
      ],
      "min": [
        -162.59089660644531,
        157.78329467773438,
        243.64830017089844
      ],
      "type": "VEC3"
    },
    {
      "bufferView": 2,
      "byteOffset": 417036,
      "componentType": 5126,
      "count": 569,
      "max": [
        0.97121524810791016,
        0.99982517957687378,
        0.90034621953964233
      ],
      "min": [
        -0.97121655941009521,
        0.029898691922426224,
        -0.99952250719070435
      ],
      "type": "VEC3"
    },
    {
      "bufferView": 1,
      "byteOffset": 136736,
      "componentType": 5126,
      "count": 569,
      "max": [
        0.39620000123977661,
        0.29600000381469727
      ],
      "min": [
        0.051899999380111694,
        0.012000000104308128
      ],
      "type": "VEC2"
    },
    {
      "bufferView": 0,
      "byteOffset": 290304,
      "componentType": 5125,
      "count": 2592,
      "max": [
        568
      ],
      "min": [
        0
      ],
      "type": "SCALAR"
    },
    {
      "bufferView": 2,
      "byteOffset": 423864,
      "componentType": 5126,
      "count": 3676,
      "max": [
        177.83830261230469,
        159.67640686035156,
        252.21809387207031
      ],
      "min": [
        -176.51260375976562,
        101.81510162353516,
        9.9488000869750977
      ],
      "type": "VEC3"
    },
    {
      "bufferView": 2,
      "byteOffset": 467976,
      "componentType": 5126,
      "count": 3676,
      "max": [
        1,
        0.99888616800308228,
        0.99883759021759033
      ],
      "min": [
        -1,
        -0.99887627363204956,
        -0.99882793426513672
      ],
      "type": "VEC3"
    },
    {
      "bufferView": 1,
      "byteOffset": 141288,
      "componentType": 5126,
      "count": 3676,
      "max": [
        0.70319998264312744,
        0.99800002574920654
      ],
      "min": [
        0.0020000000949949026,
        0.0020000000949949026
      ],
      "type": "VEC2"
    },
    {
      "bufferView": 0,
      "byteOffset": 300672,
      "componentType": 5125,
      "count": 20640,
      "max": [
        3675
      ],
      "min": [
        0
      ],
      "type": "SCALAR"
    },
    {
      "bufferView": 2,
      "byteOffset": 512088,
      "componentType": 5126,
      "count": 4504,
      "max": [
        177.8594970703125,
        159.60400390625,
        252.19549560546875
      ],
      "min": [
        -176.53390502929688,
        102.04119873046875,
        9.9127998352050781
      ],
      "type": "VEC3"
    },
    {
      "bufferView": 2,
      "byteOffset": 566136,
      "componentType": 5126,
      "count": 4504,
      "max": [
        0.9999997615814209,
        0.99739748239517212,
        0.99998438358306885
      ],
      "min": [
        -1,
        -0.99731928110122681,
        -0.99962729215621948
      ],
      "type": "VEC3"
    },
    {
      "bufferView": 1,
      "byteOffset": 170696,
      "componentType": 5126,
      "count": 4504,
      "max": [
        0.71979999542236328,
        0.76380002498626709
      ],
      "min": [
        0.0035000001080334187,
        0.0020000000949949026
      ],
      "type": "VEC2"
    },
    {
      "bufferView": 0,
      "byteOffset": 383232,
      "componentType": 5125,
      "count": 24816,
      "max": [
        4503
      ],
      "min": [
        0
      ],
      "type": "SCALAR"
    },
    {
      "bufferView": 2,
      "byteOffset": 620184,
      "componentType": 5126,
      "count": 34839,
      "max": [
        144.14410400390625,
        59.440399169921875,
        13.155900001525879
      ],
      "min": [
        -142.85310363769531,
        -47.301998138427734,
        7.0777997970581055
      ],
      "type": "VEC3"
    },
    {
      "bufferView": 2,
      "byteOffset": 1038252,
      "componentType": 5126,
      "count": 34839,
      "max": [
        1,
        0.99978154897689819,
        0.99993038177490234
      ],
      "min": [
        -1,
        -0.9998704195022583,
        -0.020999569445848465
      ],
      "type": "VEC3"
    },
    {
      "bufferView": 1,
      "byteOffset": 206728,
      "componentType": 5126,
      "count": 34839,
      "max": [
        0.97519999742507935,
        0.67760002613067627
      ],
      "min": [
        0.02630000002682209,
        0.32300001382827759
      ],
      "type": "VEC2"
    },
    {
      "bufferView": 0,
      "byteOffset": 482496,
      "componentType": 5125,
      "count": 199080,
      "max": [
        34838
      ],
      "min": [
        0
      ],
      "type": "SCALAR"
    },
    {
      "bufferView": 2,
      "byteOffset": 1456320,
      "componentType": 5126,
      "count": 31919,
      "max": [
        177.60420227050781,
        72.986801147460938,
        6.2006001472473145
      ],
      "min": [
        -177.37069702148438,
        14.407199859619141,
        1.6992000341415405
      ],
      "type": "VEC3"
    },
    {
      "bufferView": 2,
      "byteOffset": 1839348,
      "componentType": 5126,
      "count": 31919,
      "max": [
        1,
        1,
        1
      ],
      "min": [
        -1,
        -1,
        -1
      ],
      "type": "VEC3"
    },
    {
      "bufferView": 1,
      "byteOffset": 485440,
      "componentType": 5126,
      "count": 31919,
      "max": [
        0.99739998579025269,
        0.99739998579025269
      ],
      "min": [
        0.0020000000949949026,
        0.0020000000949949026
      ],
      "type": "VEC2"
    },
    {
      "bufferView": 0,
      "byteOffset": 1278816,
      "componentType": 5125,
      "count": 147912,
      "max": [
        31918
      ],
      "min": [
        0
      ],
      "type": "SCALAR"
    },
    {
      "bufferView": 2,
      "byteOffset": 2222376,
      "componentType": 5126,
      "count": 121,
      "max": [
        166.15029907226562,
        151.14370727539062,
        239.41079711914062
      ],
      "min": [
        -164.95559692382812,
        104.86129760742188,
        21.670499801635742
      ],
      "type": "VEC3"
    },
    {
      "bufferView": 2,
      "byteOffset": 2223828,
      "componentType": 5126,
      "count": 121,
      "max": [
        -0,
        -0.97814792394638062,
        0.2079101949930191
      ],
      "min": [
        -0,
        -0.97815233469009399,
        0.2078898698091507
      ],
      "type": "VEC3"
    },
    {
      "bufferView": 1,
      "byteOffset": 740792,
      "componentType": 5126,
      "count": 121,
      "max": [
        1,
        1
      ],
      "min": [
        0,
        0
      ],
      "type": "VEC2"
    },
    {
      "bufferView": 0,
      "byteOffset": 1870464,
      "componentType": 5125,
      "count": 600,
      "max": [
        120
      ],
      "min": [
        0
      ],
      "type": "SCALAR"
    },
    {
      "bufferView": 2,
      "byteOffset": 2225280,
      "componentType": 5126,
      "count": 31648,
      "max": [
        178.68699645996094,
        109.48059844970703,
        12.734499931335449
      ],
      "min": [
        -177.37869262695312,
        -160.24259948730469,
        0.78869998455047607
      ],
      "type": "VEC3"
    },
    {
      "bufferView": 2,
      "byteOffset": 2605056,
      "componentType": 5126,
      "count": 31648,
      "max": [
        1,
        1,
        1
      ],
      "min": [
        -1,
        -1,
        -1
      ],
      "type": "VEC3"
    },
    {
      "bufferView": 1,
      "byteOffset": 741760,
      "componentType": 5126,
      "count": 31648,
      "max": [
        1.2379000186920166,
        1.160099983215332
      ],
      "min": [
        -0.068300001323223114,
        -0.15809999406337738
      ],
      "type": "VEC2"
    },
    {
      "bufferView": 0,
      "byteOffset": 1872864,
      "componentType": 5125,
      "count": 156072,
      "max": [
        31647
      ],
      "min": [
        0
      ],
      "type": "SCALAR"
    },
    {
      "bufferView": 2,
      "byteOffset": 2984832,
      "componentType": 5126,
      "count": 1134,
      "max": [
        177.46440124511719,
        45.809600830078125,
        4.3087000846862793
      ],
      "min": [
        173.50799560546875,
        40.87860107421875,
        3.9291000366210938
      ],
      "type": "VEC3"
    },
    {
      "bufferView": 2,
      "byteOffset": 2998440,
      "componentType": 5126,
      "count": 1134,
      "max": [
        0.99954396486282349,
        1,
        1
      ],
      "min": [
        -0,
        -1,
        -1
      ],
      "type": "VEC3"
    },
    {
      "bufferView": 1,
      "byteOffset": 994944,
      "componentType": 5126,
      "count": 1134,
      "max": [
        0.94690001010894775,
        0.95509999990463257
      ],
      "min": [
        0.26249998807907104,
        0.52920001745223999
      ],
      "type": "VEC2"
    },
    {
      "bufferView": 0,
      "byteOffset": 2497152,
      "componentType": 5125,
      "count": 4752,
      "max": [
        1133
      ],
      "min": [
        0
      ],
      "type": "SCALAR"
    },
    {
      "bufferView": 2,
      "byteOffset": 3012048,
      "componentType": 5126,
      "count": 58511,
      "max": [
        178.68690490722656,
        160.45880126953125,
        253.03250122070312
      ],
      "min": [
        -177.36129760742188,
        101.72869873046875,
        7.7410998344421387
      ],
      "type": "VEC3"
    },
    {
      "bufferView": 2,
      "byteOffset": 3714180,
      "componentType": 5126,
      "count": 58511,
      "max": [
        1,
        0.99997341632843018,
        0.99999988079071045
      ],
      "min": [
        -1,
        -0.99989664554595947,
        -0.99999988079071045
      ],
      "type": "VEC3"
    },
    {
      "bufferView": 1,
      "byteOffset": 1004016,
      "componentType": 5126,
      "count": 58511,
      "max": [
        0.99690002202987671,
        1.1459000110626221
      ],
      "min": [
        -0.072700001299381256,
        -0.16009999811649323
      ],
      "type": "VEC2"
    },
    {
      "bufferView": 0,
      "byteOffset": 2516160,
      "componentType": 5125,
      "count": 262656,
      "max": [
        58510
      ],
      "min": [
        0
      ],
      "type": "SCALAR"
    },
    {
      "bufferView": 2,
      "byteOffset": 4416312,
      "componentType": 5126,
      "count": 8372,
      "max": [
        16.576099395751953,
        137.97489929199219,
        145.25210571289062
      ],
      "min": [
        -177.37069702148438,
        36.861000061035156,
        1.5777000188827515
      ],
      "type": "VEC3"
    },
    {
      "bufferView": 2,
      "byteOffset": 4516776,
      "componentType": 5126,
      "count": 8372,
      "max": [
        1,
        1,
        1
      ],
      "min": [
        -1,
        -1,
        -1
      ],
      "type": "VEC3"
    },
    {
      "bufferView": 1,
      "byteOffset": 1472104,
      "componentType": 5126,
      "count": 8372,
      "max": [
        0.99550002813339233,
        0.99800002574920654
      ],
      "min": [
        0.0020000000949949026,
        0.0020000000949949026
      ],
      "type": "VEC2"
    },
    {
      "bufferView": 0,
      "byteOffset": 3566784,
      "componentType": 5125,
      "count": 39264,
      "max": [
        8371
      ],
      "min": [
        0
      ],
      "type": "SCALAR"
    }
  ],
  "asset": {
    "extras": {
      "author": "vnvisual.com (https://sketchfab.com/bee3dd)",
      "license": "SKETCHFAB Standard (https://sketchfab.com/licenses)",
      "source": "https://sketchfab.com/3d-models/surface-book-3-88f28c608c3d408f98411ff3bd8b5974",
      "title": "Surface Book 3"
    },
    "generator": "Sketchfab-8.66.0",
    "version": "2.0"
  },
  "bufferViews": [
    {
      "buffer": 0,
      "byteLength": 3723840,
      "byteOffset": 0,
      "name": "floatBufferViews",
      "target": 34963
    },
    {
      "buffer": 0,
      "byteLength": 1539080,
      "byteOffset": 3723840,
      "byteStride": 8,
      "name": "floatBufferViews",
      "target": 34962
    },
    {
      "buffer": 0,
      "byteLength": 4617240,
      "byteOffset": 5262920,
      "byteStride": 12,
      "name": "floatBufferViews",
      "target": 34962
    }
  ],
  "buffers": [
    {
      "byteLength": 9880160,
      "uri": "scene.bin"
    }
  ],
  "images": [
    {
      "uri": "textures/Keyboard_baseColor.jpeg"
    },
    {
      "uri": "textures/Screen_baseColor.jpeg"
    }
  ],
  "materials": [
    {
      "doubleSided": true,
      "emissiveFactor": [
        0,
        0,
        0
      ],
      "name": "Aluminium",
      "pbrMetallicRoughness": {
        "baseColorFactor": [
          0.17901507171454986,
          0.17901507171454986,
          0.17901507171454986,
          1
        ],
        "metallicFactor": 0.59148684554536113,
        "roughnessFactor": 0.28082951802467326
      }
    },
    {
      "doubleSided": true,
      "emissiveFactor": [
        0,
        0,
        0
      ],
      "name": "Camera_Stastic",
      "pbrMetallicRoughness": {
        "baseColorFactor": [
          0,
          0.0039000000000000007,
          0.019599999999999999,
          1
        ],
        "metallicFactor": 0,
        "roughnessFactor": 0.25042865220801491
      }
    },
    {
      "doubleSided": true,
      "emissiveFactor": [
        0,
        0,
        0
      ],
      "name": "Copper",
      "pbrMetallicRoughness": {
        "baseColorFactor": [
          0.054899999999999997,
          0.039199999999999999,
          0.0235,
          1
        ],
        "metallicFactor": 0,
        "roughnessFactor": 1
      }
    },
    {
      "alphaMode": "BLEND",
      "doubleSided": true,
      "emissiveFactor": [
        0,
        0,
        0
      ],
      "name": "Crystal",
      "pbrMetallicRoughness": {
        "baseColorFactor": [
          0.0043611381642997549,
          0.004900502169334419,
          0.10829235995947611,
          0.92589636952860421
        ],
        "metallicFactor": 0,
        "roughnessFactor": 0.10450449628805425
      }
    },
    {
      "alphaMode": "BLEND",
      "doubleSided": true,
      "emissiveFactor": [
        0,
        0,
        0
      ],
      "name": "Glass",
      "pbrMetallicRoughness": {
        "baseColorFactor": [
          0,
          0,
          0,
          0
        ],
        "metallicFactor": 0,
        "roughnessFactor": 0
      }
    },
    {
      "doubleSided": true,
      "emissiveFactor": [
        0,
        0,
        0
      ],
      "name": "Gloss_Black",
      "pbrMetallicRoughness": {
        "baseColorFactor": [
          0,
          0,
          0,
          1
        ],
        "metallicFactor": 0,
        "roughnessFactor": 0.080183803634727435
      }
    },
    {
      "doubleSided": true,
      "emissiveFactor": [
        0,
        0,
        0
      ],
      "name": "Keyboard",
      "pbrMetallicRoughness": {
        "baseColorFactor": [
          1,
          1,
          1,
          1
        ],
        "baseColorTexture": {
          "index": 0,
          "texCoord": 0
        },
        "metallicFactor": 0,
        "roughnessFactor": 0.30000000000000004
      }
    },
    {
      "doubleSided": true,
      "emissiveFactor": [
        0,
        0,
        0
      ],
      "name": "Matte_Black",
      "pbrMetallicRoughness": {
        "baseColorFactor": [
          0.0038999999999999998,
          0.0038999999999999998,
          0.0038999999999999998,
          1
        ],
        "metallicFactor": 0,
        "roughnessFactor": 0.14706570843137612
      }
    },
    {
      "doubleSided": false,
      "emissiveFactor": [
        1,
        1,
        1
      ],
      "emissiveTexture": {
        "index": 1,
        "texCoord": 0
      },
      "name": "Screen",
      "pbrMetallicRoughness": {
        "baseColorFactor": [
          1,
          1,
          1,
          1
        ],
        "baseColorTexture": {
          "index": 1,
          "texCoord": 0
        },
        "metallicFactor": 0,
        "roughnessFactor": 0.16530622792137117
      }
    },
    {
      "doubleSided": true,
      "emissiveFactor": [
        0,
        0,
        0
      ],
      "name": "wire_121044008",
      "pbrMetallicRoughness": {
        "baseColorFactor": [
          0.028863290822882727,
          0.028863290822882727,
          0.028863290822882727,
          1
        ],
        "metallicFactor": 1,
        "roughnessFactor": 0.12882518894138106
      }
    }
  ],
  "meshes": [
    {
      "primitives": [
        {
          "attributes": {
            "NORMAL": 1,
            "POSITION": 0,
            "TEXCOORD_0": 2
          },
          "indices": 3,
          "material": 1,
          "mode": 4
        }
      ]
    },
    {
      "primitives": [
        {
          "attributes": {
            "NORMAL": 5,
            "POSITION": 4,
            "TEXCOORD_0": 6
          },
          "indices": 7,
          "material": 2,
          "mode": 4
        }
      ]
    },
    {
      "primitives": [
        {
          "attributes": {
            "NORMAL": 9,
            "POSITION": 8,
            "TEXCOORD_0": 10
          },
          "indices": 11,
          "material": 3,
          "mode": 4
        }
      ]
    },
    {
      "primitives": [
        {
          "attributes": {
            "NORMAL": 13,
            "POSITION": 12,
            "TEXCOORD_0": 14
          },
          "indices": 15,
          "material": 4,
          "mode": 4
        }
      ]
    },
    {
      "primitives": [
        {
          "attributes": {
            "NORMAL": 17,
            "POSITION": 16,
            "TEXCOORD_0": 18
          },
          "indices": 19,
          "material": 5,
          "mode": 4
        }
      ]
    },
    {
      "primitives": [
        {
          "attributes": {
            "NORMAL": 21,
            "POSITION": 20,
            "TEXCOORD_0": 22
          },
          "indices": 23,
          "material": 6,
          "mode": 4
        }
      ]
    },
    {
      "primitives": [
        {
          "attributes": {
            "NORMAL": 25,
            "POSITION": 24,
            "TEXCOORD_0": 26
          },
          "indices": 27,
          "material": 7,
          "mode": 4
        }
      ]
    },
    {
      "primitives": [
        {
          "attributes": {
            "NORMAL": 29,
            "POSITION": 28,
            "TEXCOORD_0": 30
          },
          "indices": 31,
          "material": 8,
          "mode": 4
        }
      ]
    },
    {
      "primitives": [
        {
          "attributes": {
            "NORMAL": 33,
            "POSITION": 32,
            "TEXCOORD_0": 34
          },
          "indices": 35,
          "material": 0,
          "mode": 4
        }
      ]
    },
    {
      "primitives": [
        {
          "attributes": {
            "NORMAL": 37,
            "POSITION": 36,
            "TEXCOORD_0": 38
          },
          "indices": 39,
          "material": 0,
          "mode": 4
        }
      ]
    },
    {
      "primitives": [
        {
          "attributes": {
            "NORMAL": 41,
            "POSITION": 40,
            "TEXCOORD_0": 42
          },
          "indices": 43,
          "material": 0,
          "mode": 4
        }
      ]
    },
    {
      "primitives": [
        {
          "attributes": {
            "NORMAL": 45,
            "POSITION": 44,
            "TEXCOORD_0": 46
          },
          "indices": 47,
          "material": 9,
          "mode": 4
        }
      ]
    }
  ],
  "nodes": [
    {
      "children": [
        1
      ],
      "name": "RootNode (gltf orientation matrix)",
      "rotation": [
        -0.70710678118654746,
        -0,
        -0,
        0.70710678118654757
      ]
    },
    {
      "children": [
        2
      ],
      "name": "RootNode (model correction matrix)"
    },
    {
      "children": [
        3,
        4,
        5,
        6,
        7,
        8,
        9,
        10,
        11,
        12,
        13,
        14
      ],
      "name": "Surface Book 3.obj.cleaner.materialmerger.gles"
    },
    {
      "mesh": 0,
      "name": ""
    },
    {
      "mesh": 1,
      "name": ""
    },
    {
      "mesh": 2,
      "name": ""
    },
    {
      "mesh": 3,
      "name": ""
    },
    {
      "mesh": 4,
      "name": ""
    },
    {
      "mesh": 5,
      "name": ""
    },
    {
      "mesh": 6,
      "name": ""
    },
    {
      "mesh": 7,
      "name": ""
    },
    {
      "mesh": 8,
      "name": ""
    },
    {
      "mesh": 9,
      "name": ""
    },
    {
      "mesh": 10,
      "name": ""
    },
    {
      "mesh": 11,
      "name": ""
    }
  ],
  "samplers": [
    {
      "magFilter": 9729,
      "minFilter": 9987,
      "wrapS": 10497,
      "wrapT": 10497
    }
  ],
  "scene": 0,
  "scenes": [
    {
      "name": "OSG_Scene",
      "nodes": [
        0
      ]
    }
  ],
  "textures": [
    {
      "sampler": 0,
      "source": 0
    },
    {
      "sampler": 0,
      "source": 1
    }
  ]
}

